<?xml version="1.0" encoding="UTF-8" standalone="no"?>
<!-- Created with Inkscape (http://www.inkscape.org/) -->

<svg
   width="208.69337mm"
   height="204.55402mm"
   viewBox="0 0 208.69337 204.55402"
   version="1.1"
   id="svg1"
   xml:space="preserve"
   inkscape:export-filename="logo.svg"
   inkscape:export-xdpi="96"
   inkscape:export-ydpi="96"
   xmlns:inkscape="http://www.inkscape.org/namespaces/inkscape"
   xmlns:sodipodi="http://sodipodi.sourceforge.net/DTD/sodipodi-0.dtd"
   xmlns="http://www.w3.org/2000/svg"
   xmlns:svg="http://www.w3.org/2000/svg"><sodipodi:namedview
     id="namedview1"
     pagecolor="#505050"
     bordercolor="#eeeeee"
     borderopacity="1"
     inkscape:showpageshadow="0"
     inkscape:pageopacity="0"
     inkscape:pagecheckerboard="0"
     inkscape:deskcolor="#505050"
     inkscape:document-units="mm"
     inkscape:export-bgcolor="#ffffffff"
     inkscape:lockguides="false" /><defs
     id="defs1"><clipPath
       clipPathUnits="userSpaceOnUse"
       id="clipPath4"><ellipse
         style="fill:#ff2a2a;stroke-width:7.97947"
         id="ellipse4"
         cx="5124.8892"
         cy="-5286.2271"
         rx="2957.8589"
         ry="2899.1904"
         transform="scale(1,-1)" /></clipPath></defs><g
     inkscape:label="Capa 1"
     inkscape:groupmode="layer"
     id="layer1"
     transform="translate(-0.68989523,-40.358874)"><g
       transform="matrix(0.03527778,0,0,-0.03527778,-75.758122,329.12223)"
       fill="#000000"
       stroke="none"
       id="g2"
       clip-path="url(#clipPath4)"><path
         d="M 0,5120 V 0 h 5120 5120 v 5120 5120 H 5120 0 Z m 5488,2290 c 755,-52 1422,-508 1756,-1201 178,-368 251,-740 226,-1151 -11,-178 -22,-255 -56,-393 -102,-415 -287,-747 -580,-1041 -249,-249 -538,-413 -892,-505 -227,-59 -220,-59 -1484,-59 H 3302 l -31,26 c -17,14 -35,42 -41,62 -13,47 -13,794 0,994 11,167 37,307 76,405 39,99 128,270 171,328 l 37,50 18,-105 c 82,-492 409,-886 871,-1049 303,-107 761,-115 1122,-20 561,147 993,602 1115,1176 33,154 38,395 12,550 -41,235 -141,478 -279,670 -80,113 -270,299 -378,371 -99,66 -294,162 -398,196 -167,55 -284,71 -507,71 -175,-1 -220,-4 -309,-23 -374,-82 -699,-269 -1011,-582 -211,-212 -345,-396 -472,-650 l -78,-155 2,980 3,980 23,32 c 13,18 38,37 55,42 44,13 2003,13 2185,1 z m -123,-839 c 280,-61 511,-187 715,-391 220,-219 340,-468 384,-795 5,-37 3,-41 -17,-44 -47,-6 -80,-3 -87,9 -6,9 -9,8 -13,-6 -3,-11 -5,-4 -6,16 -2,53 -36,197 -64,270 -106,281 -304,515 -567,672 -352,210 -797,220 -1186,27 -172,-86 -348,-236 -477,-407 -26,-35 -47,-60 -47,-55 0,4 -14,23 -31,41 -18,19 -27,37 -23,45 4,6 -3,3 -16,-8 l -23,-20 16,30 c 23,46 97,143 162,214 190,205 502,370 775,410 41,6 86,13 100,15 59,11 319,-4 405,-23 z m 15,-245 c 115,-32 134,-39 233,-87 246,-121 455,-348 557,-605 30,-75 70,-248 70,-302 0,-25 -5,-32 -32,-41 -18,-6 -42,-9 -53,-7 -11,2 -23,-2 -27,-7 -3,-6 -9,7 -12,29 -18,112 -41,207 -67,274 -97,243 -301,455 -554,575 -93,44 -166,62 -300,76 -92,10 -127,9 -215,-4 -179,-27 -335,-85 -468,-176 -73,-50 -199,-166 -248,-231 -38,-50 -59,-65 -47,-33 4,11 3,14 -5,9 -7,-4 -19,0 -28,8 -9,9 -20,14 -25,11 -5,-4 -6,1 -3,9 4,11 0,16 -10,16 -9,0 -16,3 -16,7 0,4 25,39 56,79 166,217 399,358 693,420 46,9 118,12 236,10 145,-3 184,-8 265,-30 z m -126,-215 c 8,-7 19,-10 25,-7 5,4 7,-6 4,-25 -2,-17 -1,-38 3,-47 16,-36 12,-54 -10,-48 -49,14 -206,18 -276,7 -96,-15 -225,-60 -294,-101 -74,-45 -165,-124 -221,-193 -51,-61 -62,-65 -110,-31 -16,12 -38,20 -48,18 -16,-2 -16,1 4,34 122,204 338,350 588,397 92,18 312,15 335,-4 z m 76,-21 c 0,-5 -2,-10 -4,-10 -3,0 -8,5 -11,10 -3,6 -1,10 4,10 6,0 11,-4 11,-10 z m 95,-20 c 205,-71 396,-244 501,-455 46,-93 83,-233 84,-312 0,-46 4,-44 -80,-48 -14,-1 -31,-5 -38,-9 -9,-5 -12,4 -12,31 0,56 -35,193 -68,265 -53,115 -166,245 -284,325 -56,39 -156,93 -171,93 -7,0 -20,7 -30,14 -16,13 -16,15 2,57 17,39 30,59 36,59 1,0 28,-9 60,-20 z m -215,-270 c 88,-14 211,-76 281,-142 240,-226 246,-585 14,-814 -120,-119 -258,-170 -435,-161 -117,5 -219,42 -308,110 -150,116 -222,261 -222,452 0,156 58,294 168,401 134,131 308,184 502,154 z m -871,-799 c 50,-124 100,-199 203,-304 l 97,-99 -29,-29 c -15,-16 -25,-29 -22,-29 4,0 -1,-5 -11,-11 -15,-9 -27,-5 -60,17 -98,65 -193,176 -255,299 -40,81 -93,254 -63,206 9,-14 15,-12 58,13 40,23 50,15 82,-63 z m -225,-57 c 62,-181 224,-401 369,-499 20,-14 37,-28 37,-31 0,-14 -32,-64 -40,-64 -6,0 -9,-3 -9,-7 5,-30 -2,-33 -33,-17 -92,48 -231,179 -305,289 -75,111 -141,263 -157,362 -5,30 -3,33 27,42 76,22 80,19 111,-75 z m -219,-71 c 80,-230 240,-449 438,-597 42,-32 77,-61 77,-65 0,-17 -26,-59 -46,-74 -22,-16 -25,-15 -101,35 -96,64 -241,207 -312,308 -29,41 -72,113 -96,160 -56,111 -123,322 -97,306 5,-3 23,1 38,9 53,27 65,16 99,-82 z"
         id="path1" /><path
         d="m 5071,5399 c -48,-10 -83,-38 -109,-90 -41,-78 -9,-169 73,-209 103,-50 225,26 225,138 0,107 -88,182 -189,161 z"
         id="path2" /></g><path
       style="fill:#ffffff;stroke-width:1.30374"
       d="m 151.51642,833.01039 c -1.59776,-1.11912 -3.92836,-3.90586 -5.17911,-6.19277 -2.08158,-3.806 -2.26485,-9.67653 -2.16482,-69.34499 0.15001,-89.4857 1.92372,-101.96782 19.51972,-137.36622 10.7373,-21.60056 18.83132,-34.09154 18.83132,-29.06119 0,1.67772 1.21133,9.00937 2.69184,16.29258 7.34161,36.11611 22.20953,64.60259 47.1168,90.27433 37.37955,38.52684 81.78092,55.29741 146.40415,55.29741 63.863,0 114.91831,-17.51077 155.61519,-53.37234 33.2743,-29.32089 58.2187,-73.55156 66.219,-117.41753 3.46031,-18.97299 3.14475,-57.6493 -0.61322,-75.15766 -7.91733,-36.887 -24.77608,-71.26326 -47.53913,-96.93595 -20.95672,-23.63545 -37.41042,-36.37038 -63.94334,-49.49125 -35.52841,-17.56926 -52.57906,-21.37284 -96.04924,-21.42625 -33.20267,-0.0408 -40.51486,1.03495 -67.14258,9.87779 -39.34265,13.06535 -74.80693,35.95776 -109.59052,70.74136 -26.1847,26.18471 -44.08117,50.66555 -62.48292,85.47134 l -9.99462,18.90422 0.69639,-128.89119 c 0.76063,-140.78157 0.24634,-132.12799 8.16069,-137.31367 3.16889,-2.07633 13.4917,-2.22836 146.32661,-2.15497 148.59351,0.0821 155.82863,0.31025 182.68124,5.76084 45.45882,9.22733 88.53362,30.1898 125.30187,60.9785 55.12629,46.16121 93.37414,119.06622 101.47349,193.42074 1.74917,16.05801 1.77577,50.16754 0.0528,67.7077 -5.20798,53.01761 -26.37616,106.59946 -58.46253,147.98299 -33.66452,43.41897 -75.02606,73.28377 -124.29694,89.74773 -23.21981,7.75893 -38.23193,10.95707 -58.34333,12.42929 -8.99977,0.65882 -82.96783,1.21496 -164.37348,1.23587 -132.05347,0.0339 -148.32347,-0.18134 -150.9153,-1.99671 z"
       id="path4"
       transform="scale(0.26458333)" /><path
       style="fill:#ffffff;stroke-width:1.30374"
       d="m 311.63863,633.44351 c -14.45358,-10.86495 -27.88258,-30.28771 -34.60353,-50.04813 -3.8809,-11.41034 -3.90339,-11.70562 -0.89152,-11.70562 1.29707,0 3.49713,-0.86137 4.88903,-1.91415 1.3919,-1.05278 3.2981,-1.9328 4.23601,-1.95561 0.93791,-0.0228 4.29783,5.54433 7.46649,12.37141 7.45535,16.06299 13.40173,24.6718 27.02631,39.12701 l 11.09916,11.77582 -3.74822,4.19499 c -2.06152,2.30724 -4.57838,4.19498 -5.59302,4.19498 -1.01465,0 -5.46097,-2.71831 -9.88071,-6.0407 z"
       id="path5"
       transform="scale(0.26458333)" /><path
       style="fill:#ffffff;stroke-width:1.30374"
       d="m 300.13412,662.92744 c -9.68117,-6.46484 -24.56475,-21.01664 -32.48959,-31.76536 -10.17229,-13.79699 -22.02814,-40.058 -22.86044,-50.63644 -0.30764,-3.91002 0.0464,-4.32683 4.65817,-5.48487 6.54672,-1.6439 8.61541,-0.2171 11.35013,7.8283 8.22255,24.19035 29.04397,52.92214 50.11248,69.15096 l 5.17796,3.98852 -2.57048,3.64393 c -1.41377,2.00416 -3.21769,4.75258 -4.00872,6.10759 -1.35598,2.32277 -1.89184,2.16077 -9.36951,-2.83263 z"
       id="path6"
       transform="scale(0.26458333)" /><path
       style="fill:#ffffff;stroke-width:1.30374"
       d="m 281.54908,686.24958 c -12.44204,-8.67436 -34.19722,-30.64644 -42.07132,-42.49078 -8.33454,-12.53694 -15.59153,-27.36843 -20.3662,-41.62347 -5.26544,-15.72029 -5.21094,-16.39368 1.49621,-18.48697 6.6463,-2.0743 7.11593,-1.61368 12.2656,12.03009 10.86313,28.78125 29.43847,55.30296 51.03259,72.8639 5.47711,4.45414 11.63964,9.56737 13.6945,11.36273 l 3.73612,3.2643 -3.06564,4.54912 c -1.68611,2.50201 -3.95143,4.7197 -5.03405,4.92819 -1.08263,0.20849 -6.34214,-2.6702 -11.68781,-6.39711 z"
       id="path7"
       transform="scale(0.26458333)" /><path
       style="fill:#ffffff;stroke-width:1.30374"
       d="m 374.33457,616.56756 c -19.72018,-5.30396 -38.11179,-20.4833 -47.12584,-38.89486 -16.78581,-34.28571 -5.06782,-74.84836 27.75034,-96.05976 12.3511,-7.9829 23.53194,-10.97434 40.72586,-10.89623 12.64138,0.0574 15.4228,0.50287 23.46731,3.75828 31.59457,12.78555 50.19397,39.06878 50.19397,70.93024 0,32.15967 -24.13878,63.06393 -55.67384,71.27776 -9.3858,2.4447 -30.04465,2.38407 -39.3378,-0.11543 z m 32.39002,-53.97399 c 5.86247,-4.17444 9.66234,-13.05094 8.60505,-20.10141 -3.14855,-20.99607 -27.58052,-26.28823 -39.60993,-8.57982 -2.61065,3.84313 -3.00257,5.76728 -2.57815,12.65782 0.42084,6.83251 1.11338,8.7771 4.35136,12.21836 2.11798,2.25094 5.61092,4.91073 7.76209,5.91066 5.69464,2.64704 16.24875,1.61196 21.46958,-2.10561 z"
       id="path8"
       transform="scale(0.26458333)" /><path
       style="fill:#ffffff;stroke-width:1.30374"
       d="m 298.75676,488.76557 c -1.64298,-1.15079 -4.35902,-2.47083 -6.03565,-2.93341 l -3.04842,-0.84108 4.74765,-7.10065 c 13.53019,-20.23591 35.20836,-36.49625 58.89306,-44.17443 14.32742,-4.64471 20.60366,-5.53806 39.08709,-5.5636 19.60101,-0.0271 24.79614,1.2382 24.79614,6.03915 0,1.58791 0.33749,4.57382 0.74996,6.63536 l 0.74998,3.74825 -21.93574,0.0293 c -20.60034,0.0275 -22.61036,0.25506 -33.01752,3.73846 -6.09498,2.04007 -14.38996,5.37583 -18.43328,7.41281 -9.63116,4.85208 -24.80089,17.1429 -33.47989,27.12607 -3.81379,4.38688 -7.64336,7.97615 -8.51015,7.97615 -0.8668,0 -2.92025,-0.94155 -4.56323,-2.09234 z"
       id="path9"
       transform="scale(0.26458333)" /><path
       style="fill:#ffffff;stroke-width:1.30374"
       d="m 498.02848,538.85406 c 0,-6.08208 -4.8597,-24.91598 -8.64048,-33.48643 -9.31066,-21.10583 -33.32125,-44.12581 -57.5243,-55.151 -4.56528,-2.07962 -8.14837,-4.5466 -8.14837,-5.61022 0,-3.56276 4.38925,-11.11314 6.43423,-11.06816 3.7213,0.0819 20.18279,7.19318 27.46299,11.86395 19.49095,12.50482 36.47806,31.61606 45.9082,51.64874 7.0338,14.94206 12.70088,39.22587 10.12626,43.39169 -0.57058,0.92321 -4.31816,1.95063 -8.32797,2.28315 l -7.29056,0.60459 z"
       id="path10"
       transform="scale(0.26458333)" /><path
       style="fill:#ffffff;stroke-width:1.30374"
       d="m 530.0499,537.4666 c -0.26964,-0.89632 -1.44778,-6.72858 -2.61811,-12.96057 -5.61287,-29.88865 -18.93385,-53.77162 -42.01369,-75.32565 -40.02131,-37.37548 -89.70215,-46.8204 -142.31935,-27.05659 -19.77048,7.4261 -31.34338,15.22293 -50.04273,33.71453 -9.16479,9.06297 -16.66325,15.9565 -16.66325,15.31894 0,-0.63755 -0.88003,-1.15918 -1.95561,-1.15918 -1.07559,0 -3.12898,-1.17337 -4.56309,-2.60748 -1.43411,-1.43411 -3.19319,-2.60748 -3.90905,-2.60748 -1.87405,0 7.18317,-12.24514 16.16705,-21.85744 19.90763,-21.30017 49.71148,-37.48558 80.88174,-43.92397 11.46446,-2.36805 38.81885,-2.67187 53.76255,-0.59714 12.97871,1.80192 32.19188,7.92767 44.74741,14.26685 29.9246,15.10866 57.07512,43.09261 70.94566,73.12346 4.93583,10.68646 10.83943,31.77075 12.04334,43.01189 l 0.783,7.31098 -4.2721,1.48926 c -5.60385,1.95351 -10.3622,1.89263 -10.97377,-0.14041 z"
       id="path11"
       transform="scale(0.26458333)" /><path
       style="fill:#ffffff;stroke-width:1.30374"
       d="m 562.55044,529.94883 c -0.45039,-0.72875 -1.36504,-0.98748 -2.03256,-0.57492 -0.6675,0.41254 -1.21365,-0.96937 -1.21365,-3.07092 0,-5.73677 -5.71635,-27.13311 -10.3701,-38.81537 -16.29016,-40.89299 -53.14381,-77.85258 -94.45274,-94.72428 -5.0899,-2.07885 -15.41453,-5.33136 -22.94362,-7.22779 -12.24134,-3.08335 -16.17143,-3.45173 -37.15658,-3.48278 -18.12584,-0.0268 -25.98968,0.51664 -34.5491,2.38765 -40.31557,8.81264 -75.8447,30.87948 -102.06886,63.39409 -4.33748,5.37792 -8.35991,10.32153 -8.93872,10.98579 -1.32554,1.52121 -5.94589,-2.55204 -8.50223,-7.49547 -1.85698,-3.59101 -1.71341,-3.94529 5.5488,-13.69234 23.0528,-30.94054 59.1056,-55.26488 98.0652,-66.16328 21.01114,-5.87756 37.02233,-7.4152 59.86335,-5.74897 49.0486,3.57805 87.90453,21.84549 122.35597,57.52357 16.29642,16.87665 27.81726,34.0265 35.78748,53.27297 4.84133,11.69086 11.1498,35.37332 12.42496,46.64422 l 0.91786,8.11283 h -5.95828 c -3.27706,0 -6.32679,-0.59625 -6.77718,-1.325 z"
       id="path12"
       transform="scale(0.26458333)" /></g></svg>
